<?xml version="1.0" standalone="no"?><!DOCTYPE svg PUBLIC "-//W3C//DTD SVG 1.1//EN" "http://www.w3.org/Graphics/SVG/1.1/DTD/svg11.dtd"><svg t="1680614991767" class="icon" viewBox="0 0 1024 1024" version="1.1" xmlns="http://www.w3.org/2000/svg" p-id="1891" data-darkreader-inline-fill="" xmlns:xlink="http://www.w3.org/1999/xlink" width="200" height="200"><path d="M512 832a320 320 0 1 1 0-640 320 320 0 0 1 0 640z m0 64a384 384 0 1 0 0-768 384 384 0 0 0 0 768z m0-586.666667a32 32 0 0 1 32 32v213.333334a32 32 0 0 1-64 0V341.333333a32 32 0 0 1 32-32zM512 725.333333a42.666667 42.666667 0 1 0 0-85.333333 42.666667 42.666667 0 0 0 0 85.333333z" fill="#02040F" p-id="1892" data-darkreader-inline-fill="" style="--darkreader-inline-fill:#02030c;"></path></svg>