<?xml version="1.0" standalone="no"?><!DOCTYPE svg PUBLIC "-//W3C//DTD SVG 1.1//EN" "http://www.w3.org/Graphics/SVG/1.1/DTD/svg11.dtd"><svg t="1680614758396" class="icon" viewBox="0 0 1024 1024" version="1.1" xmlns="http://www.w3.org/2000/svg" p-id="1589" data-darkreader-inline-fill="" xmlns:xlink="http://www.w3.org/1999/xlink" width="200" height="200"><path d="M504.234667 155.690667L379.477333 283.136a33.792 33.792 0 0 1-1.792 1.962667l-147.882666 151.082666v424.234667a11.093333 11.093333 0 0 0 10.922666 11.178667h120.32V668.16c0-43.221333 34.346667-78.250667 76.629334-78.250667h148.778666c42.325333 0 76.586667 35.029333 76.586667 78.250667v203.434667h120.362667a11.093333 11.093333 0 0 0 10.922666-11.178667v-424.149333L519.68 155.690667a10.794667 10.794667 0 0 0-15.445333 0zM329.386667 239.530667a33.792 33.792 0 0 1 1.792-1.92l126.592-129.365334a75.434667 75.434667 0 0 1 108.288 0l282.453333 288.554667a33.706667 33.706667 0 0 1 3.498667 3.584l77.013333 78.634667c12.8 13.098667 12.8 34.346667 0 47.445333a32.341333 32.341333 0 0 1-46.421333 0l-22.613334-23.125333v357.12c0 43.178667-34.346667 78.208-76.629333 78.208H240.725333c-42.282667 0-76.586667-35.029333-76.586666-78.250667v-357.12l-22.784 23.253333a32.341333 32.341333 0 0 1-46.421334 0 34.048 34.048 0 0 1 0-47.445333l77.610667-79.232a33.408 33.408 0 0 1 2.517333-2.56L329.386667 239.488z m97.28 632.064h170.666666V668.16a11.093333 11.093333 0 0 0-10.922666-11.178667h-148.778667a11.093333 11.093333 0 0 0-10.965333 11.178667v203.434667z" fill="#67686F" p-id="1590" data-darkreader-inline-fill="" style="--darkreader-inline-fill:#51575b;"></path></svg>