<?xml version="1.0" standalone="no"?><!DOCTYPE svg PUBLIC "-//W3C//DTD SVG 1.1//EN" "http://www.w3.org/Graphics/SVG/1.1/DTD/svg11.dtd"><svg t="1680615076751" class="icon" viewBox="0 0 1024 1024" version="1.1" xmlns="http://www.w3.org/2000/svg" p-id="2200" data-darkreader-inline-fill="" xmlns:xlink="http://www.w3.org/1999/xlink" width="200" height="200"><path d="M293.205333 358.855111a65.649778 65.649778 0 1 0 0-131.299555 65.649778 65.649778 0 0 0 0 131.299555z m0 218.851556a65.649778 65.649778 0 1 0 0-131.242667 65.649778 65.649778 0 0 0 0 131.242667z m65.649778 153.031111a65.649778 65.649778 0 1 1-131.299555 0 65.649778 65.649778 0 0 1 131.299555 0zM512 241.777778a42.666667 42.666667 0 0 0 0 85.333333h341.333333a42.666667 42.666667 0 0 0 0-85.333333H512zM469.333333 512A42.666667 42.666667 0 0 1 512 469.333333h341.333333a42.666667 42.666667 0 0 1 0 85.333334H512A42.666667 42.666667 0 0 1 469.333333 512zM512 696.888889a42.666667 42.666667 0 0 0 0 85.333333h341.333333a42.666667 42.666667 0 0 0 0-85.333333H512z" fill="#02040F" p-id="2201" data-darkreader-inline-fill="" style="--darkreader-inline-fill:#02030c;"></path></svg>