<?xml version="1.0" standalone="no"?><!DOCTYPE svg PUBLIC "-//W3C//DTD SVG 1.1//EN" "http://www.w3.org/Graphics/SVG/1.1/DTD/svg11.dtd"><svg t="1680615037714" class="icon" viewBox="0 0 1024 1024" version="1.1" xmlns="http://www.w3.org/2000/svg" p-id="2045" data-darkreader-inline-fill="" xmlns:xlink="http://www.w3.org/1999/xlink" width="200" height="200"><path d="M518.826667 85.333333c16.384 0 29.738667 13.312 29.738666 29.781334V159.146667a29.781333 29.781333 0 0 1-59.562666 0V115.114667c0-16.469333 13.354667-29.781333 29.781333-29.781334zM608.426667 480.981333h-59.861334v138.24a29.781333 29.781333 0 0 1-59.562666 0v-138.24h-59.989334a29.781333 29.781333 0 0 1 0-59.52h179.370667a29.781333 29.781333 0 0 1 0 59.52z" fill="#67686F" p-id="2046" data-darkreader-inline-fill="" style="--darkreader-inline-fill:#51575b;"></path><path d="M319.445333 728.32C249.6 674.645333 204.373333 591.957333 204.373333 498.773333c0-163.925333 139.093333-294.4 307.626667-294.4 168.448 0 307.541333 130.474667 307.541333 294.4 0 93.184-45.226667 175.872-115.029333 229.546667a75.605333 75.605333 0 0 1-69.674667 104.96H389.12a75.605333 75.605333 0 0 1-69.674667-104.96z m-55.509333-229.546667c0 76.16 38.357333 144.341333 98.645333 187.477334l0.597334 0.426666c8.106667-2.986667 16.810667-4.608 25.941333-4.608h245.674667c9.130667 0 17.877333 1.621333 25.984 4.565334l0.554666-0.426667c60.288-43.093333 98.688-111.274667 98.688-187.434667 0-128.341333-109.653333-234.837333-248.064-234.837333-138.368 0-248.021333 106.496-248.021333 234.837333zM389.12 741.546667a16.085333 16.085333 0 0 0 0 32.170666h245.674667a16.085333 16.085333 0 0 0 0-32.170666H389.12zM392.917333 879.146667a29.781333 29.781333 0 1 0 0 59.52h238.08a29.781333 29.781333 0 0 0 0-59.52H392.96zM85.333333 509.354667c0-16.426667 13.312-29.738667 29.781334-29.738667H159.146667a29.781333 29.781333 0 1 1 0 59.52H115.114667A29.781333 29.781333 0 0 1 85.333333 509.354667zM864.810667 482.218667a29.781333 29.781333 0 0 0 0 59.562666h44.074666a29.781333 29.781333 0 0 0 0-59.562666H864.853333zM237.312 193.066667a30.592 30.592 0 0 0-42.581333 0 28.970667 28.970667 0 0 0 0 41.6l31.573333 30.805333c11.733333 11.52 30.805333 11.52 42.538667 0a28.970667 28.970667 0 0 0 0-41.6l-31.573334-30.805333zM826.794667 194.304c11.093333 12.16 10.026667 30.72-2.389334 41.557333l-33.28 28.970667a30.592 30.592 0 0 1-42.453333-2.432 28.970667 28.970667 0 0 1 2.346667-41.557333l33.28-28.970667a30.592 30.592 0 0 1 42.496 2.432z" fill="#67686F" p-id="2047" data-darkreader-inline-fill="" style="--darkreader-inline-fill:#51575b;"></path></svg>