<?xml version="1.0" standalone="no"?><!DOCTYPE svg PUBLIC "-//W3C//DTD SVG 1.1//EN" "http://www.w3.org/Graphics/SVG/1.1/DTD/svg11.dtd"><svg t="1680614931524" class="icon" viewBox="0 0 1024 1024" version="1.1" xmlns="http://www.w3.org/2000/svg" p-id="1741" data-darkreader-inline-fill="" xmlns:xlink="http://www.w3.org/1999/xlink" width="200" height="200"><path d="M512 128c16.298667 0 29.525333 13.226667 29.525333 29.525333V215.893333A305.28 305.28 0 0 1 817.237333 512v236.330667h49.237334a29.525333 29.525333 0 1 1 0 59.050666h-215.125334C630.613333 860.586667 573.866667 896 512 896c-61.866667 0-118.613333-35.413333-139.349333-88.661333H157.525333a29.525333 29.525333 0 1 1 0-59.050667h49.237334V519.68a305.237333 305.237333 0 0 1 275.712-303.786667V157.482667c0-16.298667 13.226667-29.525333 29.525333-29.525334zM265.813333 748.288h492.373334V519.68a246.144 246.144 0 0 0-492.373334 0v228.608z m175.573334 59.050667c15.573333 17.450667 40.32 29.610667 70.613333 29.610666 30.293333 0 55.04-12.16 70.613333-29.610666h-141.226666z" fill="#67686F" p-id="1742" data-darkreader-inline-fill="" style="--darkreader-inline-fill:#51575b;"></path></svg>